<?xml version="1.0" encoding="utf-8"?>
<!-- Generator: Adobe Illustrator 22.1.0, SVG Export Plug-In . SVG Version: 6.00 Build 0)  -->
<svg version="1.1" id="Layer_1" xmlns="http://www.w3.org/2000/svg" xmlns:xlink="http://www.w3.org/1999/xlink" x="0px" y="0px"
	 viewBox="0 0 100 100" style="enable-background:new 0 0 100 100;" xml:space="preserve">
<style type="text/css">
	.st0{fill:#FFFFFF;}
</style>
<polygon class="st0" points="81.7,38.7 60.9,81.1 35.8,42.2 "/>
<polygon class="st0" points="35.6,40.1 50.4,5 81.2,36.7 "/>
<polygon class="st0" points="83.2,40.4 92.2,71 63,81.3 "/>
<polygon class="st0" points="84.5,37.5 86.6,27.8 90.7,58.7 "/>
<polygon class="st0" points="82.9,35.5 55.1,6.9 85.7,22.5 "/>
<polygon class="st0" points="33.5,39.9 8.8,28 48,5.6 "/>
<polygon class="st0" points="59,81.9 14.6,76.5 34,43.2 "/>
<polygon class="st0" points="59.1,83.9 49.9,95 18.6,79 "/>
<polygon class="st0" points="61.6,84 82.9,76.4 54.5,92.6 "/>
<polygon class="st0" points="7.8,29.8 32.5,41.7 13.6,74.2 "/>
</svg>
